<svg xmlns="http://www.w3.org/2000/svg" viewBox="0 0 64 64" fill="none">
  <!-- Palette body -->
  <path d="M32 6C18.7 6 8 15.8 8 28c0 7.2 3.8 13.5 9.6 17.4C19.8 46.9 21 48.8 21 51c0 3.9 3.6 7 8 7s8-3.1 8-7c0-1.1.6-2.1 1.6-2.6C46.8 45 56 37.2 56 28 56 15.8 45.3 6 32 6z" fill="#62C688"/>
  <!-- Thumb hole -->
  <ellipse cx="24" cy="44" rx="4.5" ry="5.5" fill="#0a0a0a" opacity="0.35"/>
  <!-- Paint dots -->
  <circle cx="22" cy="18" r="4" fill="#FF6B2B"/>
  <circle cx="33" cy="13" r="4" fill="#f0f0f0"/>
  <circle cx="44" cy="18" r="4" fill="#FF6B2B" opacity="0.55"/>
  <circle cx="48" cy="29" r="4" fill="#0a0a0a" opacity="0.6"/>
  <circle cx="44" cy="40" r="4" fill="#62C688" fill-opacity="0.5" stroke="#fff" stroke-width="1.5"/>
</svg>
