<svg xmlns="http://www.w3.org/2000/svg" viewBox="0 0 64 64">
  <!-- Green circle background -->
  <circle cx="32" cy="32" r="32" fill="#51ff00"/>
  <!-- Palette icon: translate(13,13) scale(1.58) centres the 24×24 icon in 64×64 -->
  <g transform="translate(13,13) scale(1.58)">
    <!-- Palette body (same path as Navbar PaletteIcon) -->
    <path
      d="M12 3C7.03 3 3 7.03 3 12c0 4.97 4.03 9 9 9 .83 0 1.5-.67 1.5-1.5 0-.39-.15-.74-.39-1.01-.23-.26-.38-.61-.38-.99 0-.83.67-1.5 1.5-1.5H16c2.76 0 5-2.24 5-5 0-4.42-4.03-8-9-8z"
      fill="rgba(0,0,0,0.12)"
      stroke="#0a0a0a"
      stroke-width="1"
      stroke-linejoin="round"
    />
    <!-- Paint dots -->
    <circle cx="7"    cy="12"  r="1.2" fill="#0a0a0a"/>
    <circle cx="9"    cy="8.5" r="1.2" fill="#0a0a0a"/>
    <circle cx="13"   cy="7"   r="1.2" fill="#0a0a0a"/>
    <circle cx="16.5" cy="9.5" r="1.2" fill="#0a0a0a"/>
  </g>
</svg>
